<svg xmlns="http://www.w3.org/2000/svg" viewBox="0 0 512.002 512.002" width="512" height="512" xmlns:v="https://vecta.io/nano"><path d="M494.84 166.183c-1.577-3.83-5.96-5.654-9.79-4.08s-5.656 5.96-4.08 9.79c10.488 25.477 16.032 54.56 16.032 84.105 0 74.637-34.665 138.083-82.52 160.14a118.27 118.27 0 0 0 .911-14.566c0-21.666-5.935-42.853-17.162-61.27-6.55-10.74-10-23.114-10-35.783 0-12.662 3.46-25.032 10.01-35.773 11.23-18.417 17.163-39.604 17.163-61.27s-5.935-42.86-17.162-61.28c-6.55-10.74-10-23.11-10-35.773 0-7.416 1.176-14.676 3.48-21.638 27.957 4.83 54.188 23.583 73.557 53.114a7.5 7.5 0 1 0 12.543-8.227c-25.485-38.855-62.108-61.14-100.48-61.14-28.074 0-54.95 11.58-77.72 33.485-19.93 19.173-35.48 45.05-45.327 75.2-33.97-33.234-75.213-55.144-116.435-61.778-42.927-6.904-80.76 3.48-106.53 29.25C6.917 173.093-3.78 208.746 1.2 249.094c4.838 39.288 24.124 79.643 54.305 113.63 1.482 1.668 3.542 2.52 5.61 2.52 1.77 0 3.55-.624 4.978-1.892 3.097-2.75 3.378-7.49.628-10.59C38.53 321.028 20.548 283.56 16.077 247.26c-2.51-20.395-.578-39.337 5.47-55.76a118.4 118.4 0 0 0 9.632 10.916c15.32 15.318 34.497 26.104 55.46 31.188 12.227 2.966 23.423 9.268 32.38 18.226 8.953 8.952 15.253 20.146 18.218 32.372 5.084 20.964 15.87 40.142 31.188 55.46 15.324 15.323 34.504 26.1 55.467 31.193 12.226 2.967 23.42 9.267 32.374 18.22 5.253 5.253 9.552 11.225 12.845 17.78-19.796 14.008-45.824 19.936-74.83 16.773-35.325-3.848-72.133-20.703-103.643-47.463a7.5 7.5 0 0 0-9.709 11.433c40.292 34.218 86.75 51.867 128.3 51.867 31.69 0 60.52-10.276 81.55-31.307 1.843-1.843 3.6-3.757 5.285-5.73 23.263 23.938 51.86 37.033 81.268 37.033 36.443 0 70.54-19.407 96-54.646 24.938-34.504 38.673-80.253 38.673-128.82-.002-31.486-5.937-62.543-17.163-89.816zm-94.448 41.295c0 18.9-5.177 37.396-14.97 53.46-7.98 13.095-12.2 28.165-12.2 43.582 0 15.424 4.22 30.497 12.202 43.592 9.793 16.064 14.97 34.55 14.97 53.46 0 6.82-.683 13.63-2.018 20.28a86.35 86.35 0 0 1-20.124 2.595c2.1-7.41 3.167-15.073 3.167-22.874 0-15.417-4.22-30.487-12.2-43.582-9.795-16.066-14.972-34.556-14.972-53.47 0-18.91 5.177-37.396 14.972-53.462 7.98-13.094 12.2-28.164 12.2-43.58 0-15.423-4.22-30.497-12.2-43.592-9.795-16.066-14.972-34.553-14.972-53.46 0-6.79.673-13.566 1.997-20.184 6.595-1.7 13.33-2.617 20.147-2.694-2.1 7.413-3.17 15.076-3.17 22.878 0 15.417 4.22 30.487 12.2 43.582 9.794 16.065 14.97 34.555 14.97 53.47zM227.427 356.28c-18.285-4.435-35.02-13.848-48.396-27.224-13.37-13.37-22.782-30.104-27.217-48.39-3.615-14.904-11.288-28.544-22.19-39.444-10.906-10.905-24.548-18.58-39.45-22.196-18.285-4.435-35.02-13.846-48.39-27.216-4.815-4.816-9.143-10.108-12.895-15.743 3.49-5.846 7.624-11.233 12.377-16.09a83.75 83.75 0 0 0 13.935 18.417c10.902 10.9 24.54 18.573 39.444 22.188 18.286 4.436 35.02 13.85 48.396 27.225 13.37 13.37 22.78 30.102 27.216 48.388 3.614 14.9 11.287 28.54 22.19 39.445s24.547 18.58 39.45 22.196c18.287 4.435 35.02 13.846 48.39 27.217a102.95 102.95 0 0 1 12.881 15.713c-3.48 5.862-7.615 11.257-12.37 16.12a83.73 83.73 0 0 0-13.928-18.417c-10.9-10.9-24.54-18.573-39.443-22.19zm77.604 33.83c18.96-30.568 22.36-71.897 8.61-114.97a7.5 7.5 0 1 0-14.289 4.561c9.948 31.17 10.083 61.102 1.12 85.592-2.966-3.798-6.16-7.428-9.578-10.844-15.318-15.32-34.496-26.104-55.46-31.188-12.227-2.967-23.423-9.27-32.38-18.226s-15.255-20.15-18.22-32.374c-5.084-20.964-15.87-40.142-31.188-55.46s-34.504-26.1-55.468-31.195c-12.225-2.965-23.42-9.265-32.372-18.217a68.67 68.67 0 0 1-12.856-17.791c48.98-34.787 131.874-17.03 192.71 43.805 16.74 16.742 30.508 35.38 40.918 55.398 1.913 3.676 6.442 5.104 10.114 3.194a7.5 7.5 0 0 0 3.194-10.114c-8.993-17.292-20.316-33.602-33.748-48.64 13.288-46.715 40.973-82.134 73.99-97.585-.583 4.76-.887 9.562-.887 14.37 0 21.664 5.936 42.85 17.163 61.27 6.548 10.742 10.01 23.116 10.01 35.784 0 12.662-3.46 25.032-10.008 35.773-11.23 18.418-17.164 39.605-17.164 61.27s5.936 42.86 17.163 61.278c6.548 10.742 10.01 23.112 10.01 35.774a68.66 68.66 0 0 1-3.48 21.644c-20.933-3.61-41.004-15.03-57.904-33.106z"/></svg>