<svg xmlns="http://www.w3.org/2000/svg" xmlns:xlink="http://www.w3.org/1999/xlink" viewBox="0 0 480.718 480.718" xmlns:v="https://vecta.io/nano"><path d="M255.767 13.87l-9.272-11.13a8.26 8.26 0 0 0-11.659-.629 8.51 8.51 0 0 0-.63.63l-9.272 11.12a140.8 140.8 0 0 0-32.584 90c.026 26.5 21.5 47.974 48 48 26.5-.026 47.974-21.5 48-48a140.8 140.8 0 0 0-32.584-89.992zm-15.417 122c-17.673 0-32-14.327-32-32a124.87 124.87 0 0 1 28.872-79.76l3.128-3.744 3.128 3.752c18.64 22.398 28.854 50.613 28.872 79.752 0 17.673-14.327 32-32 32zm140-80c-46.37.053-83.947 37.63-84 84 0 19.882 16.118 36 36 36s36-16.118 36-36c0-6.627 5.373-12 12-12 19.882 0 36-16.118 36-36s-16.118-36-36-36zm0 56c-15.464 0-28 12.536-28 28 0 11.046-8.954 20-20 20s-20-8.954-20-20c.044-37.537 30.463-67.956 68-68 11.046 0 20 8.954 20 20s-8.954 20-20 20z"/><path d="M169.052 92.945c-1.215-.102-2.437.074-3.573.516l-2.576.992 3.28-13.12c2.57-10.288-3.688-20.7-13.976-23.28-3.055-.763-6.25-.763-9.304 0l-13.128 3.288.992-2.584a8 8 0 0 0-1.072-7.696 7.89 7.89 0 0 0-7.072-3.2 82.9 82.9 0 0 0-50.184 24.688c-28.09 28.11-33.144 68.704-11.29 90.51a48.28 48.28 0 0 0 34.904 13.672 64.17 64.17 0 0 0 9.144-.664 83.7 83.7 0 0 0 46.464-24.328 82.95 82.95 0 0 0 24.688-50.152c.37-4.402-2.897-8.272-7.3-8.644zm-46.3-13.396l24.056-6a3.2 3.2 0 0 1 3.88 3.879l-6.008 24-35.64 13.736 13.7-35.614zm17.6 60.904c-10.03 10.44-23.15 17.38-37.424 19.8-10.926 2.206-22.25-.946-30.464-8.48-15.616-15.6-10.512-46.048 11.288-67.912 7.536-7.632 16.68-13.484 26.768-17.128L87.6 126.26a8 8 0 0 0 10.352 10.352l59.504-22.928a71.96 71.96 0 0 1-17.104 26.768zm167.868 59.42c-12.724.003-24.927 5.058-33.926 14.054-23.24 23.264-37.602 53.927-40.6 86.672l-1.344 14.464c-.398 4.4 2.847 8.3 7.247 8.688a7.86 7.86 0 0 0 .753.032h.728l14.4-1.312c32.748-2.996 63.414-17.36 86.68-40.6a47.67 47.67 0 0 0 14.072-34.008c-.006-26.5-21.5-47.996-48-48zm22.682 70.645l-.04-.032a124.8 124.8 0 0 1-76.8 36l-4.864.448.448-4.864c2.66-29.02 15.398-56.2 36-76.8 12.635-12.357 32.895-12.133 45.252.502 12.163 12.435 12.164 32.3.004 44.746z"/><use xlink:href="#B"/><path d="M424.35 138.43c-30.88 0-56 32.296-56 72a82.95 82.95 0 0 0 18.024 52.936 8 8 0 0 0 11.273.964 7.99 7.99 0 0 0 2.159-2.876l1.12-2.512 6.96 11.6c5.456 9.093 17.25 12.04 26.342 6.586a19.2 19.2 0 0 0 6.586-6.586l6.96-11.6 1.12 2.512a8 8 0 0 0 6.184 4.68 7.74 7.74 0 0 0 1.128.08 8 8 0 0 0 6.12-2.848 82.95 82.95 0 0 0 18.024-52.936c0-39.704-25.12-72-56-72zm2.744 123.88a3.2 3.2 0 0 1-4.39 1.098c-.45-.27-.827-.647-1.098-1.098l-12.752-21.248 15.496-34.912 15.496 34.912-12.752 21.248zm30.432-20.848h-.032L431.63 183.2a8 8 0 0 0-14.624 0l-25.832 58.272c-4.562-9.705-6.894-20.308-6.824-31.032 0-30.872 17.944-56 40-56s40 25.128 40 56c.07 10.724-2.262 21.327-6.824 31.032zM176.327 439.1l-1.312-14.4a140.8 140.8 0 0 0-40.6-86.672c-18.744-18.747-49.135-18.75-67.882-.006a48 48 0 0 0-14.062 33.958c-.034 12.735 5.027 24.955 14.056 33.936a140.8 140.8 0 0 0 86.672 40.6l14.4 1.312h.728c4.418.018 8.015-3.55 8.033-7.967a8.02 8.02 0 0 0-.033-.76zm-21.648-8.528a124.8 124.8 0 0 1-76.8-36c-12.492-12.496-12.492-32.752 0-45.248l-.04.032c12.496-12.497 32.758-12.498 45.255-.001l.001.001c20.602 20.6 33.34 47.78 36 76.8l.448 4.864-4.864-.448z"/><use xlink:href="#B" x="216" y="128"/><path d="M320.35 427.06c-4.953-37.7-33.758-67.867-71.2-74.544-15.904-2.962-32.264 1.874-44 13.008-21.832 21.832-16.8 62.4 11.312 90.504a82.9 82.9 0 0 0 50.184 24.68c.227.012.453.012.68 0a8 8 0 0 0 7.997-8.003c0-.98-.18-1.954-.533-2.87l-.992-2.576 13.12 3.28a19.2 19.2 0 0 0 4.736.592c10.604-.04 19.167-8.67 19.127-19.273-.006-1.548-.2-3.1-.575-4.6l-3.28-13.128 2.576.992c2.56.975 5.44.583 7.648-1.04a8 8 0 0 0 3.2-7.032zm-26.528 27.152a3.2 3.2 0 0 1-3.048.84l-24-6-13.728-35.648 35.64 13.736 5.976 24.032c.287 1.1-.034 2.252-.84 3.04zm-51.872-62.216a8 8 0 0 0-10.336 10.344l22.92 59.496c-10.094-3.635-19.246-9.485-26.784-17.12-21.832-21.832-26.904-52.288-11.312-67.88a32.66 32.66 0 0 1 23.68-8.976 48.7 48.7 0 0 1 6.792.496c14.278 2.418 27.402 9.355 37.44 19.792a71.91 71.91 0 0 1 17.112 26.776l-59.512-22.928zM75.858 245.3c14.233-13.893 14.5-36.685.622-50.913s-36.68-14.504-50.908-.617l-.613.613c-32.803 32.804-32.803 85.988 0 118.792a35.65 35.65 0 0 0 25.448 10.576c19.882.013 36-16.093 36.024-35.976.007-9.568-3.796-18.745-10.568-25.504-4.688-4.685-4.7-12.284-.005-16.97zM64.55 301.885a20.47 20.47 0 0 1-28.28 0c-26.556-26.555-26.557-69.6-.001-96.167 7.847-7.777 20.5-7.72 28.285.127 7.727 7.797 7.725 20.365-.004 28.16-10.914 10.944-10.914 28.656 0 39.6 7.808 7.8 7.808 20.47 0 28.28z"/><defs ><path id="B" d="M196.35 175.86c-19.882 0-36 16.118-36 36 0 6.627-5.373 12-12 12-19.882 0-36 16.118-36 36s16.118 36 36 36c46.37-.053 83.947-37.63 84-84 0-19.882-16.118-36-36-36zm-48 104c-11.046 0-20-8.954-20-20s8.954-20 20-20c15.464 0 28-12.536 28-28 0-11.046 8.954-20 20-20s20 8.954 20 20c-.044 37.537-30.463 67.956-68 68z"/></defs></svg>