<svg xmlns="http://www.w3.org/2000/svg" height="682.667" viewBox="-61 0 512 512" width="682.667" xmlns:v="https://vecta.io/nano"><path d="M390 256c0-92.16-24.73-167.586-30-182.6V0H30v73.4C24.723 88.44 0 163.863 0 256s24.723 167.56 30 182.6V512h330v-73.4c5.27-15.023 30-90.45 30-182.6zM60 30h270v31H60zM30 256c0-75.785 18.184-141.043 25.785-165h278.44C341.828 114.9 360 180.016 360 256c0 75.8-18.187 141.047-25.785 165H55.773C48.168 397.082 30 331.98 30 256zm300 226H60v-31h270zm-32.96-304.367c-8.422 1.195-38.484 4.238-72.273 21.3-1.457-3.285-3.066-6.46-4.824-9.508-16.887-29.254-55.137-59.738-126.98-69.937-27.105 67.36-19.797 115.715-2.922 144.937 15.63 27.074 42.508 43.7 65.2 53.512 1.824 37.578 13.992 65.23 17.746 74.56 71.914-10.207 110.117-40.73 126.977-69.937 16.9-29.25 24.168-77.62-2.922-144.934zm-181.02 71.8c-18.48-32.008-9.48-75.488-3.492-96.086 20.824 5.066 62.87 18.938 81.434 51.086 1.918 3.324 3.6 6.9 5.016 10.656-7.766 6.035-15.04 13.043-21.297 21.145l-32.2-55.773-25.98 15 41.688 72.203c-1.914 5.9-3.32 11.906-4.297 17.895-15.445-8-31.355-19.645-40.87-36.125zm157.96 58.133c-13.406 23.223-39.277 36.934-60.426 44.664l56.945-98.637-25.98-15-56.945 98.637c-3.88-22.184-4.94-51.44 8.465-74.664 18.47-31.988 60.594-45.937 81.44-51.06 5.992 20.625 14.97 64.074-3.5 96.06zm0 0"/></svg>