<svg xmlns="http://www.w3.org/2000/svg" width="512" height="512" viewBox="0 0 476.668 476.668" xmlns:v="https://vecta.io/nano"><path d="M245.312 269.296c1.203-6.755 3.73-13.24 7.852-18.98 3.25-4.536 7.3-8.25 11.778-11.3-.528-1.82-1.105-3.625-1.422-5.544-2-12.177.992-24.012 7.42-33.506-9.145-6.974-15.737-17.216-17.728-29.37-1.292-7.877-.35-15.72 2.268-23.036l-.024-.024c-44.098-37.717-80.993-20.874-99.957-10.5-9.9 5.414-17.094 7.77-21.663 8.836-4.666.44-12.233.488-23.345-1.504-21.272-3.812-61.598-8.072-91.455 41.683-10.128 16.883-6.56 49.82 5.446 83.237l220.83.008zM72.2 175.663c13.82-7.5 26.125 13.542 12.307 21.053-20.817 11.323-23.28 32-8.372 49.942C86.1 258.656 68.947 276 58.884 263.9c-24.54-29.507-22.232-68.915 13.306-88.236zM67.58 42.54c-11.087-7.088-19.6 11.738-8.673 18.72 31.173 19.93 54.2 29.946 61 68.33 2.292 12.98 22.606 11.006 20.28-2.113-.756-4.276-1.715-8.194-2.78-11.95-6.47-2.105-14.07-7.633-18.94-21.58-1.983-5.674-2.374-10.697-1.52-15.168-12.64-13.43-29.4-23.484-49.357-36.238zm224.967 226.756c-7.03-2.715-13.2-7.112-18.12-12.73-2.187-2.504-4.12-5.227-5.74-8.185-2.837 2.17-5.462 4.633-7.608 7.616a36.68 36.68 0 0 0-5.983 13.298h37.45zm38.45 0c-.163-.3-.284-.642-.44-.96l-1.772.96h2.2zm-7.446-66.68c-5.113 3.17-10.852 5.332-16.964 6.332-2.504.415-5.048.618-7.568.618-7.064 0-13.697-1.723-19.72-4.552-1.097 1.577-2.056 3.243-2.894 4.967-3.2 6.592-4.536 14.16-3.26 21.923.138.82.423 1.577.6 2.382.374 1.618.78 3.22 1.35 4.74.276.732.65 1.406.967 2.113.35.772.658 1.57 1.057 2.3 6.243 11.6 18.362 19.232 32.2 19.232 2 0 4.007-.163 6-.488 2.73-.447 5.332-1.26 7.836-2.268 1.325-.536 2.577-1.195 3.82-1.878-.17-.756-.44-1.463-.577-2.235-.024-.122-.073-.228-.1-.35-.48-2.926-.642-5.853-.57-8.754.228-9.088 3.12-17.883 8.454-25.467a46.1 46.1 0 0 1-10.632-18.623zm12.388 51.283c.098.602.317 1.138.447 1.73l.382 1.496.83 3.2c.2.593.536 1.122.78 1.707l1.26 2.764c.813 1.577 1.748 3.056 2.772 4.487h59.624c.463-.65.772-1.382 1.195-2.057-10.868-6.885-18.777-18.127-20.996-31.693-.106-.667-.05-1.325-.13-2-2.17.7-4.333 1.382-6.625 1.764a46.47 46.47 0 0 1-7.568.618c-4.495 0-8.787-.805-12.916-2-1.6-.463-3.186-.935-4.706-1.56-1.577-.642-3.105-1.374-4.593-2.178-1.398-.764-2.7-1.634-4-2.528-4.682 7.023-6.698 15.257-5.926 23.63.08.86.023 1.72.17 2.6zm-13.705-72.45a46.63 46.63 0 0 1 12.933-24.825c-3.138-17.558-18.192-30.255-36.05-30.255a37.01 37.01 0 0 0-5.983.488 36.49 36.49 0 0 0-23.882 14.81c-3.268 4.552-5.267 9.697-6.2 15.062-.707 4.024-.878 8.16-.195 12.315 1.374 8.364 5.52 15.582 11.323 20.964.967.894 1.983 1.707 3.04 2.495 1.35 1.008 2.73 1.95 4.22 2.764 1.6.878 3.235 1.683 4.958 2.317a36.65 36.65 0 0 0 12.64 2.243 37.01 37.01 0 0 0 5.983-.488c6.178-1.016 11.77-3.666 16.558-7.42-.008-.187 0-.374-.008-.56a45.7 45.7 0 0 1 .073-4.958 46.98 46.98 0 0 1 .601-4.95zm21.81 35.92c.34.293.74.528 1.1.805a37.55 37.55 0 0 0 3 2.138l2.44 1.44c1.618.87 3.276 1.658 5.023 2.276 3.86 1.366 8 2.154 12.315 2.154 2 0 4.007-.163 6-.488 2.845-.463 5.544-1.34 8.145-2.422.35-3.406 1.1-6.722 2.178-9.966.504-1.496.87-3.024 1.528-4.463.707-1.56 1.715-3 2.6-4.487.683-1.138 1.2-2.35 2-3.438 3.82-5.324 8.665-9.616 14.144-12.85-.057-1.512-.05-3.032-.293-4.552-2.097-12.794-10.575-22.98-21.833-27.767.406-1.577.878-3.113 1.366-4.65.504-1.593 1.057-3.154 1.642-4.7 10.275-26.824 32.88-46.1 57.388-61.395 10.112-6.316 2.414-23.467-7.852-17.054-30.287 18.915-56.453 41.976-68.1 75.124-.585 1.666-1.105 3.373-1.618 5.088-.48 1.618-.95 3.243-1.366 4.9-.602.065-1.2.05-1.805.146-6.4 1.05-12.014 3.83-16.753 7.6a36 36 0 0 0-4.706 4.479c-4.87 5.536-8.023 12.43-8.9 19.94-.146 1.276-.3 2.544-.317 3.853-.008.602.1 1.22.114 1.83.057 1.496.033 2.983.276 4.495.024.154.1.3.114.455.08.48.252.92.358 1.4 1.382 6.357 4.292 12.022 8.38 16.623 1.114 1.212 2.235 2.415 3.48 3.48zm67.524 43.358c1.447.732 2.918 1.414 4.47 1.95 3.78 1.3 7.803 2.065 12.006 2.065a37.01 37.01 0 0 0 5.983-.488 36.49 36.49 0 0 0 30.295-42.179c-2.926-17.826-18.143-30.775-36.188-30.775a37.01 37.01 0 0 0-5.983.488c-2.845.463-5.544 1.34-8.145 2.422-1.813.756-3.6 1.56-5.267 2.585-2.34 1.455-4.463 3.243-6.43 5.202-1.44 1.43-2.83 2.918-4.04 4.6-.488.683-.805 1.44-1.244 2.146-.886 1.423-1.788 2.83-2.463 4.34-.35.772-.528 1.6-.82 2.398-.276.764-.56 1.528-.788 2.3-.528 1.82-.878 3.666-1.122 5.552a35.92 35.92 0 0 0-.276 6.072c.057 1.52.05 3.032.3 4.56 1.674 10.226 7.47 18.736 15.444 24.223 1.365.942 2.78 1.78 4.267 2.527zM406.7 129.94c-27.4 47.463 48.706 52.43 69.98 32.295.008 0-42.57-79.766-69.98-32.295zM231.43 435.696c127.814 0 231.43-30.458 231.43-158.27H0c0 127.813 103.615 158.27 231.43 158.27zM184.763 68.772c-5.5-.845-15.696-2.162-26.215-2.162-16.623 0-27.662 3.178-31.93 9.185-2.44 3.438-2.666 8.055-.902 13.94.154.52.228.984.415 1.52 1.902 5.438 4.308 9.567 7.186 12.453 3.22 3.235 7.015 4.9 11.396 4.9 15.167-.001 34-19.16 40.05-39.847z"/></svg>