<svg xmlns="http://www.w3.org/2000/svg" viewBox="0 0 26 26" fill="#030104" xmlns:v="https://vecta.io/nano"><path d="M21.184 2.555c.688 1.202.125 1.662-.436 1.977s-1.235.425-1.92-.774C18.136 2.556 18.1 0 18.1 0s2.384 1.354 3.074 2.555zm2.976 3.45c-.595 1.25-1.292 1.053-1.87.775-.58-.283-1.056-.773-.467-2.02.595-1.254 2.674-2.736 2.674-2.736s.254 2.73-.337 3.98zm.404 4.724c-.897 1.056-1.52.685-2.006.267s-.82-1.018.07-2.07c.895-1.06 3.3-1.954 3.3-1.954s-.46 2.702-1.355 3.758zm-4-1.392c1.23.716.978 1.396.65 1.95s-.863.984-2.1.27-2.6-2.946-2.6-2.946 2.798.012 4.03.726zm2.38 6.247c-1.202.688-1.662.128-1.98-.43s-.426-1.237.77-1.925 3.76-.72 3.76-.72-1.35 2.387-2.55 3.077zm-3.11-2.526c.88 1.12.393 1.66-.114 2.052s-1.17.596-2.045-.52-1.312-3.695-1.312-3.695 2.592 1.047 3.47 2.164zm.593 6.62c-1.366.24-1.607-.443-1.716-1.076s.015-1.307 1.372-1.55c1.367-.243 3.783.597 3.783.597s-2.08 1.785-3.44 2.03zm-2.23-3.393c.6 1.292 0 1.704-.584 1.97s-1.27.3-1.866-.975c-.6-1.293-.432-3.9-.432-3.9s2.286 1.614 2.882 2.904zm-2.724 2.502c.245 1.4-.438 1.645-1.07 1.753s-1.312-.028-1.555-1.424c-.245-1.404.587-3.88.587-3.88s1.792 2.15 2.038 3.55zm1.318 4.04c-1.4-.2-1.424-.937-1.327-1.57.104-.638.44-1.234 1.843-1.024 1.4.2 3.496 1.783 3.496 1.783s-2.607 1.02-4.012.8zm-4.394-1.78c.102 1.42-.603 1.594-1.244 1.637-.643.037-1.3-.164-1.403-1.576-.098-1.422.983-3.8.983-3.8s1.565 2.32 1.664 3.738zm.364 4.15c-1.344-.477-1.22-1.192-1-1.796s.668-1.127 2.005-.654 3.088 2.42 3.088 2.42-2.754.504-4.092.03zm7.4-19.733c1.366.37 1.298 1.096 1.126 1.712s-.58 1.175-1.94.806c-1.37-.37-3.243-2.17-3.243-2.17s2.7-.717 4.056-.348zM10.638 23.44S4.185 25.978.16 25.074c-.316.376.446.926.446.926s5.86.1 10.033-2.56z"/></svg>