<svg xmlns="http://www.w3.org/2000/svg" viewBox="0 0 511.998 511.998" xmlns:v="https://vecta.io/nano"><path d="M342.103 250.947l-.092-.092a10 10 0 0 0-14.104 14.18l.092.092c1.95 1.94 4.5 2.9 7.052 2.9 2.568 0 5.136-.983 7.1-2.948a10 10 0 0 0-.038-14.142zm169.582-87.862a10 10 0 0 0-12.162-7.218 221.09 221.09 0 0 0-47.888 18.363c7.928-15.075 14.106-31.06 18.354-47.65a10 10 0 0 0-7.207-12.168c-5.352-1.367-10.798 1.857-12.168 7.207-4.25 16.604-10.652 32.535-18.944 47.44l1.246-5.906c1.06-5.42-2.473-10.674-7.893-11.735-2.208-.433-4.382-.093-6.262.816 3.46-9.5 5.36-19.708 5.36-30.3 0-49.075-39.925-89-89-89-27.353 0-52.014 12.482-68.406 32.154-16.66-20.358-41.394-32.154-68.583-32.154-49.075 0-89 39.925-89 89 0 21.314 7.37 41.325 20.646 57.1-15.755 5.043-30.695 13.378-43.893 24.56-10.903-21.447 7.92-54.47 8.175-54.9 2.776-4.767 1.168-10.883-3.595-13.667-4.77-2.787-10.893-1.18-13.68 3.588-.788 1.35-12.225 21.28-14.034 43.723l-29.47-29.472a10 10 0 0 0-14.142 14.142l29.47 29.47c-22.416 1.8-42.315 13.237-43.66 14.025-4.762 2.785-6.36 8.896-3.584 13.662 1.857 3.187 5.208 4.964 8.65 4.964 1.707 0 3.436-.437 5.017-1.354.37-.214 33.398-19.08 54.855-8.157-32.066 37.915-38.883 88.517-18.635 125.984.133.27.28.53.438.8 3.988 7.206 8.98 13.918 15.005 19.943 10.14 10.14 22.35 17.466 35.712 21.906a9.7 9.7 0 0 0 1.682.523c9.643 3 19.85 4.555 30.3 4.555 13.562 0 27.528-2.57 41.172-7.757-7 12.713-12.797 24.194-17.222 34.1-13.013 29.097-14.823 45.254-6.052 54.025 3.592 3.592 8.422 5.4 14.874 5.4 9.3 0 21.97-3.778 39.15-11.462 19.975-8.934 46.4-23.483 76.42-42.076 51.395-31.83 109.163-73.07 126.147-90.055 30.078-30.078 34.458-75.918 12.572-108.708 14.412-6.43 29.538-11.212 45.104-14.25a10 10 0 1 0-3.829-19.629l-5.757 1.208c14.912-8.235 30.858-14.603 47.5-18.846 5.35-1.367 8.58-6.8 7.216-12.163zM335.122 52.933c38.047 0 69 30.953 69 69 0 31.038-20.83 57.912-49.87 66.28-3.974-44.677-41.097-79.965-86.54-81.023 6.786-31.14 34.612-54.257 67.4-54.257zM411.5 167.488a207.49 207.49 0 0 1-12.511 36.874 80.58 80.58 0 0 0-15.26-7.931 89.71 89.71 0 0 0 27.771-28.943zm-145.9-40.326c36.926 0 67.166 29.158 68.915 65.66-16.04 3.535-31.434 11.622-44.05 24.24-7.047 7.048-18.274 21.123-31.27 38.847-2.384-21.082-11.46-40.368-26.6-55.506-9.652-9.652-21.16-16.842-33.914-21.365 7.52-30.066 34.983-51.874 66.92-51.874zm-136.478-5.23c0-38.047 30.953-69 69-69 23.286 0 44.233 11.143 56.98 30.048-3.956 8.093-6.7 16.883-8.047 26.146-32.996 7.003-59.644 32.286-67.815 65.233-7.328-.992-14.92-1.213-22.693-.614a113.58 113.58 0 0 0-3.592.34c-15.2-12.993-23.833-31.8-23.833-52.154zm-2.685 250.983l9.374-9.374a10 10 0 0 0 0-14.142c-3.906-3.905-10.237-3.905-14.142 0l-17.965 17.964c-8.5-3.52-16.275-8.587-22.88-15.193-2.974-2.974-5.627-6.166-7.967-9.537l60.784-60.784c3.905-3.905 3.905-10.237 0-14.143s-10.237-3.905-14.143 0l-55.96 55.96c-10.042-31.164-.15-69.975 28.143-98.268 33.563-33.562 81.92-41.226 114.758-20.438l-14.603 14.604c-3.905 3.905-3.905 10.237 0 14.143a9.97 9.97 0 0 0 7.07 2.93 9.96 9.96 0 0 0 7.07-2.93l15.715-15.715c16.023 18.134 21.717 42.146 16.046 68.172l-15.705 23.288-21.626 33.753-7.9 12.935c-3.092 1.066-5.544 2.187-8.286 3.45l-2.14.978a10.38 10.38 0 0 0-.643.319c-18.007 9.755-37.232 13.682-55.013 12.028zm276.37-61.256l-36.28-36.28c-3.905-3.905-10.237-3.905-14.143 0s-3.905 10.237 0 14.143l36.85 36.852c-18.657 16.198-63.8 48.8-111.385 78.624-12.748 8-24.882 15.274-36.17 21.727l-21.855-21.854c-3.905-3.905-10.237-3.905-14.143 0s-3.905 10.237 0 14.143l17.788 17.788c-6.642 3.542-12.878 6.708-18.612 9.437-24.848 11.825-34.74 12.94-37.987 12.824-.114-3.24 1-13.14 12.824-37.987 9.307-19.557 23.567-44.796 41.24-73l11.156-17.5 18.673 18.673a9.97 9.97 0 0 0 7.07 2.93 9.96 9.96 0 0 0 7.07-2.93c3.905-3.905 3.905-10.237 0-14.143L243.33 313.54c26.15-39.108 50.8-71.85 61.287-82.336 26.25-26.252 67.824-27.394 92.67-2.546 21.98 21.977 23.6 57.032 5.53 83.003zm-216.843-72.083a10 10 0 0 0-14.142.014l-.24.24c-3.9 3.9-3.895 10.24.014 14.142a9.97 9.97 0 0 0 14.142-.014l.24-.24c3.9-3.9 3.895-10.24-.014-14.142z"/></svg>